<svg width="24" height="24" viewBox="0 0 24 24" fill="none" xmlns="http://www.w3.org/2000/svg">
<path d="M0 4C0 1.79086 1.79086 0 4 0H20C22.2091 0 24 1.79086 24 4V20C24 22.2091 22.2091 24 20 24H4C1.79086 24 0 22.2091 0 20V4Z" fill="url(#paint0_linear_3_19)"/>
<path d="M7 18V16.8827H7.64354C7.90295 16.8827 8.11247 16.8173 8.27211 16.6864C8.43175 16.5656 8.51156 16.3391 8.51156 16.007V7.73287H9.76871V16.0674C9.76871 16.772 9.61406 17.2702 9.30476 17.5621C8.99547 17.854 8.48163 18 7.76327 18H7ZM8.48163 6.47967V5H9.79864V6.47967H8.48163Z" fill="white"/>
<path d="M14.902 15.9164C14.1937 15.9164 13.59 15.8006 13.0912 15.5691C12.6023 15.3376 12.2181 15.0205 11.9388 14.6179C11.6694 14.2052 11.5147 13.7371 11.4748 13.2137L12.7918 13.1231C12.8717 13.6063 13.0762 13.9938 13.4054 14.2857C13.7347 14.5676 14.2336 14.7085 14.902 14.7085C15.4408 14.7085 15.8698 14.6229 16.1891 14.4518C16.5184 14.2706 16.683 13.9837 16.683 13.5912C16.683 13.3798 16.6331 13.2036 16.5333 13.0627C16.4336 12.9218 16.239 12.801 15.9497 12.7003C15.6603 12.5896 15.2313 12.4839 14.6626 12.3833C13.9043 12.2424 13.3057 12.0712 12.8667 11.8699C12.4376 11.6585 12.1283 11.4019 11.9388 11.0999C11.7592 10.7878 11.6694 10.4204 11.6694 9.99768C11.6694 9.283 11.9288 8.69919 12.4476 8.24623C12.9664 7.7832 13.7048 7.55168 14.6626 7.55168C15.3111 7.55168 15.8549 7.67247 16.2939 7.91405C16.7429 8.14557 17.0921 8.45761 17.3415 8.85017C17.6009 9.23267 17.7705 9.65544 17.8503 10.1185L16.5333 10.2091C16.4735 9.92722 16.3637 9.6806 16.2041 9.46922C16.0444 9.24777 15.8349 9.07666 15.5755 8.95586C15.3161 8.82501 15.0068 8.75958 14.6476 8.75958C14.0789 8.75958 13.6599 8.87031 13.3905 9.09175C13.1211 9.3132 12.9864 9.59504 12.9864 9.93728C12.9864 10.199 13.0463 10.4154 13.166 10.5865C13.2957 10.7476 13.5002 10.8835 13.7796 10.9942C14.059 11.0949 14.4331 11.1854 14.902 11.266C15.7102 11.4069 16.3388 11.578 16.7878 11.7793C17.2367 11.9806 17.551 12.2273 17.7306 12.5192C17.9102 12.8111 18 13.1684 18 13.5912C18 14.0844 17.8603 14.5072 17.581 14.8595C17.3116 15.2017 16.9424 15.4634 16.4735 15.6446C16.0145 15.8258 15.4907 15.9164 14.902 15.9164Z" fill="white"/>
<defs>
<linearGradient id="paint0_linear_3_19" x1="0" y1="0" x2="24" y2="24" gradientUnits="userSpaceOnUse">
<stop stop-color="#363636"/>
<stop offset="1" stop-color="#121212"/>
</linearGradient>
</defs>
</svg>
